<svg width="24" height="24" viewBox="0 0 24 24" fill="none" xmlns="http://www.w3.org/2000/svg">
<rect width="24" height="24" rx="12" fill="#E3E5E8"/>
<path d="M12.0016 8.41058C10.0152 8.41058 8.41294 10.0132 8.41294 12C8.41294 13.9868 10.0152 15.5894 12.0016 15.5894C13.988 15.5894 15.5902 13.9868 15.5902 12C15.5902 10.0132 13.988 8.41058 12.0016 8.41058ZM12.0016 14.3336C10.7179 14.3336 9.66849 13.2871 9.66849 12C9.66849 10.7129 10.7148 9.66641 12.0016 9.66641C13.2883 9.66641 14.3346 10.7129 14.3346 12C14.3346 13.2871 13.2852 14.3336 12.0016 14.3336V14.3336ZM16.574 8.26375C16.574 8.72922 16.1992 9.10097 15.737 9.10097C15.2716 9.10097 14.8999 8.7261 14.8999 8.26375C14.8999 7.80141 15.2747 7.42653 15.737 7.42653C16.1992 7.42653 16.574 7.80141 16.574 8.26375ZM18.9508 9.11347C18.8977 7.99197 18.6416 6.99855 17.8202 6.18007C17.0019 5.3616 16.0087 5.10543 14.8875 5.0492C13.7318 4.9836 10.2682 4.9836 9.11255 5.0492C7.99442 5.10231 7.00123 5.35847 6.17981 6.17695C5.35839 6.99543 5.10541 7.98884 5.04919 9.11034C4.9836 10.2662 4.9836 13.7307 5.04919 14.8865C5.10229 16.008 5.35839 17.0015 6.17981 17.8199C7.00123 18.6384 7.9913 18.8946 9.11255 18.9508C10.2682 19.0164 13.7318 19.0164 14.8875 18.9508C16.0087 18.8977 17.0019 18.6415 17.8202 17.8199C18.6385 17.0015 18.8946 16.008 18.9508 14.8865C19.0164 13.7307 19.0164 10.2693 18.9508 9.11347V9.11347ZM17.4579 16.1267C17.2143 16.739 16.7427 17.2108 16.1274 17.4575C15.206 17.8231 13.0197 17.7387 12.0016 17.7387C10.9834 17.7387 8.79398 17.8199 7.87574 17.4575C7.26358 17.2139 6.79197 16.7422 6.54523 16.1267C6.17981 15.2052 6.26414 13.0184 6.26414 12C6.26414 10.9816 6.18293 8.7917 6.54523 7.87326C6.78885 7.26096 7.26046 6.78924 7.87574 6.54245C8.7971 6.17695 10.9834 6.2613 12.0016 6.2613C13.0197 6.2613 15.2091 6.18007 16.1274 6.54245C16.7395 6.78612 17.2112 7.25784 17.4579 7.87326C17.8233 8.79482 17.739 10.9816 17.739 12C17.739 13.0184 17.8233 15.2083 17.4579 16.1267Z" fill="#212429"/>
</svg>
