<svg width="24" height="24" viewBox="0 0 24 24" fill="none" xmlns="http://www.w3.org/2000/svg">
<rect width="24" height="24" rx="12" fill="#E3E5E8"/>
<path d="M8.68607 18H6.19821V9.98821H8.68607V18ZM7.4408 8.89533C6.64527 8.89533 6 8.23639 6 7.44084C6 7.0587 6.1518 6.69222 6.422 6.42201C6.6922 6.1518 7.05868 6 7.4408 6C7.82293 6 8.1894 6.1518 8.45961 6.42201C8.72981 6.69222 8.88161 7.0587 8.88161 7.44084C8.88161 8.23639 8.23607 8.89533 7.4408 8.89533ZM17.9973 18H15.5148V14.0999C15.5148 13.1704 15.4961 11.9784 14.2213 11.9784C12.9279 11.9784 12.7296 12.9883 12.7296 14.0329V18H10.2445V9.98821H12.6305V11.0811H12.6654C12.9975 10.4516 13.8088 9.78732 15.0193 9.78732C17.5371 9.78732 18 11.4454 18 13.599V18H17.9973Z" fill="#212429"/>
</svg>
