<svg width="24" height="24" viewBox="0 0 24 24" fill="none" xmlns="http://www.w3.org/2000/svg">
<rect width="24" height="24" rx="12" fill="#E3E5E8"/>
<path d="M18.7075 9.4082C18.5464 8.8539 18.072 8.41735 17.4697 8.2692C16.3779 8 12 8 12 8C12 8 7.6221 8 6.53029 8.2692C5.92795 8.41738 5.45356 8.8539 5.29254 9.4082C5 10.4129 5 12.5091 5 12.5091C5 12.5091 5 14.6053 5.29254 15.61C5.45356 16.1643 5.92795 16.5826 6.53029 16.7308C7.6221 17 12 17 12 17C12 17 16.3779 17 17.4697 16.7308C18.072 16.5826 18.5464 16.1643 18.7075 15.61C19 14.6053 19 12.5091 19 12.5091C19 12.5091 19 10.4129 18.7075 9.4082V9.4082ZM10.5682 14.4123V10.6059L14.2272 12.5091L10.5682 14.4123V14.4123Z" fill="#212429"/>
</svg>
